<?xml version="1.0" standalone="no"?>
<!DOCTYPE svg PUBLIC "-//W3C//DTD SVG 20010904//EN"
 "http://www.w3.org/TR/2001/REC-SVG-20010904/DTD/svg10.dtd">
<svg version="1.0" xmlns="http://www.w3.org/2000/svg"
 width="853.000000pt" height="1280.000000pt" viewBox="0 0 853.000000 1280.000000"
 preserveAspectRatio="xMidYMid meet">
<metadata>
Created by potrace 1.15, written by Peter Selinger 2001-2017
</metadata>
<g transform="translate(0.000000,1280.000000) scale(0.100000,-0.100000)"
fill="#000000" stroke="none">
<path d="M5075 11710 c-82 -4 -175 -10 -205 -14 -98 -13 -372 -77 -485 -113
-170 -55 -229 -90 -237 -140 -3 -22 -4 -22 -54 12 -68 46 -235 82 -283 62 -17
-7 -28 -16 -24 -20 3 -4 -8 -7 -24 -7 -17 0 -55 -9 -85 -19 -29 -11 -83 -28
-120 -40 -37 -11 -89 -32 -115 -46 -26 -14 -97 -44 -156 -67 -60 -22 -111 -47
-114 -55 -3 -8 -23 -23 -45 -34 -21 -11 -37 -23 -34 -28 3 -4 -9 -16 -27 -26
-38 -21 -137 -115 -137 -130 0 -5 -25 -40 -55 -77 -30 -37 -63 -84 -73 -105
-11 -21 -59 -80 -107 -131 -48 -50 -84 -92 -80 -92 3 0 -3 -13 -14 -29 -11
-15 -25 -41 -31 -55 -5 -15 -24 -47 -40 -71 -17 -24 -30 -51 -30 -60 0 -8 -7
-32 -16 -53 -8 -20 -20 -59 -25 -86 -5 -27 -34 -97 -64 -156 -48 -95 -53 -111
-45 -139 7 -26 3 -49 -20 -114 -20 -56 -26 -85 -19 -94 7 -8 5 -29 -5 -64 -9
-29 -16 -73 -16 -98 0 -68 -29 -247 -52 -321 -31 -97 -114 -297 -140 -333 -12
-18 -46 -59 -75 -92 -178 -200 -244 -291 -315 -429 -68 -135 -148 -346 -148
-392 0 -36 -88 -280 -136 -380 -24 -50 -44 -101 -44 -115 0 -13 -16 -76 -36
-139 -19 -63 -39 -135 -43 -160 -5 -25 -27 -121 -49 -215 -98 -411 -116 -611
-117 -1250 0 -454 2 -504 18 -539 9 -21 17 -47 17 -59 0 -11 12 -52 26 -91 38
-106 101 -377 114 -491 6 -55 17 -124 24 -153 8 -28 13 -52 13 -52 -17 -2
-240 -46 -322 -64 -60 -13 -143 -29 -182 -36 -46 -7 -87 -21 -110 -37 -29 -20
-50 -26 -85 -25 -34 1 -74 -10 -140 -38 -56 -23 -125 -43 -173 -50 -142 -20
-209 -33 -249 -46 -21 -8 -49 -14 -62 -14 l-24 0 0 -1340 0 -1340 23 0 c13 0
27 3 31 7 14 14 80 31 121 31 24 0 65 10 91 21 26 12 55 19 65 16 10 -3 28 1
41 9 24 15 222 68 242 64 6 -1 21 3 34 10 12 7 44 12 70 11 26 -1 65 5 87 14
22 9 66 23 97 32 33 9 58 21 58 29 0 19 51 41 60 25 4 -6 13 -8 19 -5 8 5 11
-42 11 -170 0 -235 27 -421 75 -513 23 -45 77 -103 149 -160 66 -52 150 -96
167 -86 5 4 36 10 68 15 78 11 155 48 159 78 3 22 4 22 48 -9 89 -61 209 -94
234 -64 9 11 16 11 45 -6 18 -11 61 -24 95 -30 59 -9 65 -8 99 15 20 14 58 29
83 32 34 5 48 12 51 25 4 14 14 19 39 19 70 0 188 79 188 126 0 14 19 47 45
80 57 69 142 246 163 339 17 75 20 299 7 582 -4 109 -3 143 7 149 7 5 52 10
100 12 81 4 89 6 112 33 27 30 63 38 84 17 8 -8 22 -7 57 6 25 10 45 22 45 27
0 6 8 6 19 -1 28 -14 104 -12 148 4 87 32 122 38 166 32 36 -6 54 -3 86 14 23
11 41 16 41 11 0 -6 34 -8 88 -4 48 3 105 6 127 6 22 1 45 7 51 15 9 12 14 12
31 2 12 -8 28 -10 39 -5 47 19 294 6 401 -22 42 -11 78 -13 115 -9 29 4 64 8
78 9 14 1 30 6 36 10 18 11 181 67 196 67 7 0 21 8 30 18 31 32 47 42 61 36 8
-3 20 2 27 11 16 19 79 48 205 92 55 19 105 39 111 44 6 5 14 6 18 1 4 -4 12
1 17 11 7 11 22 17 48 17 36 0 68 19 55 33 -11 11 41 36 73 35 17 -1 39 6 48
16 9 9 25 16 36 16 11 0 41 9 66 21 25 11 66 22 91 24 25 2 49 10 53 17 23 37
25 38 60 28 27 -8 36 -7 45 5 6 8 14 12 17 9 9 -9 47 6 47 20 0 16 57 36 103
36 20 0 70 13 112 30 72 29 205 53 234 42 8 -3 20 3 28 14 10 14 27 19 69 21
30 0 60 5 67 11 7 5 44 15 82 21 39 7 104 21 145 33 41 11 122 29 180 40 58
10 107 23 108 28 2 6 12 10 23 10 10 0 19 5 19 11 0 7 12 9 34 5 19 -4 37 -2
41 3 3 6 12 8 21 4 8 -3 22 1 32 9 24 22 44 27 65 16 12 -6 26 -4 45 6 15 8
65 22 112 31 47 9 112 26 144 36 33 10 76 19 96 19 20 0 59 7 86 15 27 8 75
15 106 15 31 0 58 5 60 11 2 5 32 12 66 14 34 1 68 7 75 13 19 15 120 33 184
32 32 0 81 4 108 10 28 5 80 15 118 21 l67 11 0 1284 c0 1143 -2 1284 -15
1284 -9 0 -93 -16 -189 -35 -311 -63 -488 -95 -649 -120 -87 -14 -258 -45
-380 -69 -122 -25 -341 -63 -487 -85 -342 -52 -366 -57 -485 -91 -131 -37
-205 -56 -345 -86 -327 -70 -452 -94 -473 -89 -12 4 -43 1 -67 -5 -25 -6 -68
-15 -97 -20 -28 -4 -56 -11 -61 -14 -6 -3 -44 -12 -86 -20 -41 -8 -151 -35
-243 -60 -93 -24 -195 -51 -228 -59 -92 -23 -209 -58 -220 -67 -11 -9 -260
-64 -338 -76 -40 -5 -52 -3 -70 14 -12 11 -37 23 -54 27 -18 3 -33 10 -33 15
0 4 -24 19 -54 33 -30 14 -57 31 -61 37 -4 6 20 41 53 78 100 112 163 238 207
411 32 129 72 411 85 601 5 85 13 200 16 255 l7 100 47 55 c25 30 57 76 70
102 12 26 35 60 50 76 44 49 55 161 53 527 -2 228 -7 342 -20 430 -9 66 -17
145 -16 175 7 338 5 389 -12 485 -9 55 -21 107 -25 115 -4 8 -15 96 -24 195
-10 99 -35 294 -56 433 l-40 253 24 127 c20 110 32 145 86 257 35 72 77 163
96 204 l32 73 299 0 c332 -1 597 11 778 33 168 22 794 31 990 16 355 -28 734
-93 945 -161 119 -39 296 -124 374 -178 37 -26 66 -40 77 -37 12 4 20 -1 24
-15 14 -43 50 -16 80 60 12 29 19 82 22 150 4 91 2 118 -21 203 -108 402 -496
851 -949 1096 -127 68 -376 177 -495 217 -149 48 -361 104 -527 138 -235 48
-367 62 -845 89 -30 2 -122 0 -205 -3z m-1050 -5979 c-7 -39 -8 -70 -5 -127 1
-20 -3 -41 -9 -47 -7 -7 -7 -16 0 -29 7 -14 7 -28 1 -46 -6 -15 -20 -59 -31
-97 -29 -102 -109 -215 -139 -196 -9 5 -2 37 28 127 22 65 54 166 71 224 17
58 39 135 50 173 21 71 46 85 34 18z"/>
</g>
</svg>
